<svg xmlns="http://www.w3.org/2000/svg" xmlns:xlink="http://www.w3.org/1999/xlink" xmlns:lucid="lucid" width="660" height="740"><g transform="translate(-480 -240)" lucid:page-tab-id="0_0"><path d="M0 0h1760v1360H0z" fill="#fff"/><path d="M860 948c0 6.63-26.86 12-60 12s-60-5.37-60-12v-96c0-6.63 26.86-12 60-12s60 5.37 60 12z" stroke="#000" stroke-width="2" fill="#fff"/><path d="M860 852c0 6.63-26.86 12-60 12s-60-5.37-60-12" stroke="#000" stroke-width="2" fill="none"/><use xlink:href="#a" transform="matrix(1,0,0,1,745,869) translate(16.525 46.65)"/><path d="M720 660h160v120H720z" stroke="#000" stroke-width="2" fill="#fff"/><use xlink:href="#b" transform="matrix(1,0,0,1,725,665) translate(35.6 59.0875)"/><path d="M500 660h160v120H500z" stroke="#000" stroke-width="2" fill="#fff"/><use xlink:href="#c" transform="matrix(1,0,0,1,505,665) translate(13.099999999999994 59.0875)"/><path d="M500 460h160v120H500z" stroke="#000" stroke-width="2" fill="#fff"/><use xlink:href="#d" transform="matrix(1,0,0,1,505,465) translate(60 59.0875)"/><path d="M720 460h160v120H720z" stroke="#000" stroke-width="2" fill="#fff"/><use xlink:href="#e" transform="matrix(1,0,0,1,725,465) translate(50.025 59.0875)"/><path d="M960 260h160v120H960z" stroke="#000" stroke-width="2" fill="#fff"/><use xlink:href="#f" transform="matrix(1,0,0,1,965,265) translate(28.124999999999993 59.0875)"/><path d="M800 782v38.5" stroke="#000" stroke-width="2" fill="none"/><path d="M801 782.03h-2V781h2z"/><path d="M800 835.76l-4.64-14.26h9.28z" stroke="#000" stroke-width="2"/><path d="M662 720h38.5" stroke="#000" stroke-width="2" fill="none"/><path d="M662.03 721H661v-2h1.03z"/><path d="M715.76 720l-14.26 4.64v-9.28z" stroke="#000" stroke-width="2"/><path d="M662 520h38.5" stroke="#000" stroke-width="2" fill="none"/><path d="M662.03 521H661v-2h1.03z"/><path d="M715.76 520l-14.26 4.64v-9.28z" stroke="#000" stroke-width="2"/><path d="M960 460h160v120H960z" stroke="#000" stroke-width="2" fill="#fff"/><use xlink:href="#g" transform="matrix(1,0,0,1,965,465) translate(57.5 59.0875)"/><path d="M882 520h58.5" stroke="#000" stroke-width="2" fill="none"/><path d="M882.03 521H881v-2h1.03z"/><path d="M955.76 520l-14.26 4.64v-9.28z" stroke="#000" stroke-width="2"/><path d="M1040 458v-58.5" stroke="#000" stroke-width="2" fill="none"/><path d="M1041 459h-2v-1.03h2z"/><path d="M1040 384.24l4.64 14.26h-9.28z" stroke="#000" stroke-width="2"/><path d="M1040 582v38H800v20.5" stroke="#000" stroke-width="2" fill="none"/><path d="M1041 582.03h-2V581h2z"/><path d="M800 655.76l-4.64-14.26h9.28z" stroke="#000" stroke-width="2"/><defs><path d="M30-248c118-7 216 8 213 122C240-48 200 0 122 0H30v-248zM63-27c89 8 146-16 146-99s-60-101-146-95v194" id="h"/><path d="M141-36C126-15 110 5 73 4 37 3 15-17 15-53c-1-64 63-63 125-63 3-35-9-54-41-54-24 1-41 7-42 31l-33-3c5-37 33-52 76-52 45 0 72 20 72 64v82c-1 20 7 32 28 27v20c-31 9-61-2-59-35zM48-53c0 20 12 33 32 33 41-3 63-29 60-74-43 2-92-5-92 41" id="i"/><path d="M59-47c-2 24 18 29 38 22v24C64 9 27 4 27-40v-127H5v-23h24l9-43h21v43h35v23H59v120" id="j"/><path d="M115-194c53 0 69 39 70 98 0 66-23 100-70 100C84 3 66-7 56-30L54 0H23l1-261h32v101c10-23 28-34 59-34zm-8 174c40 0 45-34 45-75 0-40-5-75-45-74-42 0-51 32-51 76 0 43 10 73 51 73" id="k"/><path d="M135-143c-3-34-86-38-87 0 15 53 115 12 119 90S17 21 10-45l28-5c4 36 97 45 98 0-10-56-113-15-118-90-4-57 82-63 122-42 12 7 21 19 24 35" id="l"/><path d="M100-194c63 0 86 42 84 106H49c0 40 14 67 53 68 26 1 43-12 49-29l28 8c-11 28-37 45-77 45C44 4 14-33 15-96c1-61 26-98 85-98zm52 81c6-60-76-77-97-28-3 7-6 17-6 28h103" id="m"/><g id="a"><use transform="matrix(0.05,0,0,0.05,0,0)" xlink:href="#h"/><use transform="matrix(0.05,0,0,0.05,12.950000000000001,0)" xlink:href="#i"/><use transform="matrix(0.05,0,0,0.05,22.950000000000003,0)" xlink:href="#j"/><use transform="matrix(0.05,0,0,0.05,27.950000000000003,0)" xlink:href="#i"/><use transform="matrix(0.05,0,0,0.05,37.95,0)" xlink:href="#k"/><use transform="matrix(0.05,0,0,0.05,47.95,0)" xlink:href="#i"/><use transform="matrix(0.05,0,0,0.05,57.95,0)" xlink:href="#l"/><use transform="matrix(0.05,0,0,0.05,66.95,0)" xlink:href="#m"/></g><path d="M24-231v-30h32v30H24zM-9 49c24 4 33-6 33-30v-209h32V24c2 40-23 58-65 49V49" id="n"/><path d="M100-194c62-1 85 37 85 99 1 63-27 99-86 99S16-35 15-95c0-66 28-99 85-99zM99-20c44 1 53-31 53-75 0-43-8-75-51-75s-53 32-53 75 10 74 51 75" id="o"/><path d="M16-82v-28h88v28H16" id="p"/><path d="M210-169c-67 3-38 105-44 169h-31v-121c0-29-5-50-35-48C34-165 62-65 56 0H25l-1-190h30c1 10-1 24 2 32 10-44 99-50 107 0 11-21 27-35 58-36 85-2 47 119 55 194h-31v-121c0-29-5-49-35-48" id="q"/><path d="M85-194c31 0 48 13 60 33l-1-100h32l1 261h-30c-2-10 0-23-3-31C134-8 116 4 85 4 32 4 16-35 15-94c0-66 23-100 70-100zm9 24c-40 0-46 34-46 75 0 40 6 74 45 74 42 0 51-32 51-76 0-42-9-74-50-73" id="r"/><path d="M24 0v-261h32V0H24" id="s"/><g id="b"><use transform="matrix(0.05,0,0,0.05,0,0)" xlink:href="#n"/><use transform="matrix(0.05,0,0,0.05,3.95,0)" xlink:href="#o"/><use transform="matrix(0.05,0,0,0.05,13.949999999999998,0)" xlink:href="#k"/><use transform="matrix(0.05,0,0,0.05,23.95,0)" xlink:href="#p"/><use transform="matrix(0.05,0,0,0.05,29.899999999999995,0)" xlink:href="#q"/><use transform="matrix(0.05,0,0,0.05,44.85,0)" xlink:href="#o"/><use transform="matrix(0.05,0,0,0.05,54.85,0)" xlink:href="#r"/><use transform="matrix(0.05,0,0,0.05,64.85,0)" xlink:href="#m"/><use transform="matrix(0.05,0,0,0.05,74.85,0)" xlink:href="#s"/></g><path d="M96-169c-40 0-48 33-48 73s9 75 48 75c24 0 41-14 43-38l32 2c-6 37-31 61-74 61-59 0-76-41-82-99-10-93 101-131 147-64 4 7 5 14 7 22l-32 3c-4-21-16-35-41-35" id="t"/><path d="M177-190C167-65 218 103 67 71c-23-6-38-20-44-43l32-5c15 47 100 32 89-28v-30C133-14 115 1 83 1 29 1 15-40 15-95c0-56 16-97 71-98 29-1 48 16 59 35 1-10 0-23 2-32h30zM94-22c36 0 50-32 50-73 0-42-14-75-50-75-39 0-46 34-46 75s6 73 46 73" id="u"/><path d="M114-163C36-179 61-72 57 0H25l-1-190h30c1 12-1 29 2 39 6-27 23-49 58-41v29" id="v"/><path d="M179-190L93 31C79 59 56 82 12 73V49c39 6 53-20 64-50L1-190h34L92-34l54-156h33" id="w"/><g id="c"><use transform="matrix(0.05,0,0,0.05,0,0)" xlink:href="#t"/><use transform="matrix(0.05,0,0,0.05,9,0)" xlink:href="#i"/><use transform="matrix(0.05,0,0,0.05,19,0)" xlink:href="#j"/><use transform="matrix(0.05,0,0,0.05,24,0)" xlink:href="#m"/><use transform="matrix(0.05,0,0,0.05,34,0)" xlink:href="#u"/><use transform="matrix(0.05,0,0,0.05,44,0)" xlink:href="#o"/><use transform="matrix(0.05,0,0,0.05,54,0)" xlink:href="#v"/><use transform="matrix(0.05,0,0,0.05,59.95,0)" xlink:href="#w"/><use transform="matrix(0.05,0,0,0.05,68.95,0)" xlink:href="#p"/><use transform="matrix(0.05,0,0,0.05,74.9,0)" xlink:href="#q"/><use transform="matrix(0.05,0,0,0.05,89.85000000000001,0)" xlink:href="#o"/><use transform="matrix(0.05,0,0,0.05,99.85000000000001,0)" xlink:href="#r"/><use transform="matrix(0.05,0,0,0.05,109.85000000000001,0)" xlink:href="#m"/><use transform="matrix(0.05,0,0,0.05,119.85000000000001,0)" xlink:href="#s"/></g><path d="M115-194c55 1 70 41 70 98S169 2 115 4C84 4 66-9 55-30l1 105H24l-1-265h31l2 30c10-21 28-34 59-34zm-8 174c40 0 45-34 45-75s-6-73-45-74c-42 0-51 32-51 76 0 43 10 73 51 73" id="x"/><g id="d"><use transform="matrix(0.05,0,0,0.05,0,0)" xlink:href="#i"/><use transform="matrix(0.05,0,0,0.05,10,0)" xlink:href="#x"/><use transform="matrix(0.05,0,0,0.05,20,0)" xlink:href="#x"/></g><path d="M84 4C-5 8 30-112 23-190h32v120c0 31 7 50 39 49 72-2 45-101 50-169h31l1 190h-30c-1-10 1-25-2-33-11 22-28 36-60 37" id="y"/><g id="e"><use transform="matrix(0.05,0,0,0.05,0,0)" xlink:href="#v"/><use transform="matrix(0.05,0,0,0.05,5.95,0)" xlink:href="#o"/><use transform="matrix(0.05,0,0,0.05,15.949999999999998,0)" xlink:href="#y"/><use transform="matrix(0.05,0,0,0.05,25.950000000000003,0)" xlink:href="#j"/><use transform="matrix(0.05,0,0,0.05,30.950000000000003,0)" xlink:href="#m"/><use transform="matrix(0.05,0,0,0.05,40.95,0)" xlink:href="#l"/></g><g id="f"><use transform="matrix(0.05,0,0,0.05,0,0)" xlink:href="#v"/><use transform="matrix(0.05,0,0,0.05,5.95,0)" xlink:href="#o"/><use transform="matrix(0.05,0,0,0.05,15.949999999999998,0)" xlink:href="#s"/><use transform="matrix(0.05,0,0,0.05,19.9,0)" xlink:href="#m"/><use transform="matrix(0.05,0,0,0.05,29.899999999999995,0)" xlink:href="#l"/><use transform="matrix(0.05,0,0,0.05,38.9,0)" xlink:href="#p"/><use transform="matrix(0.05,0,0,0.05,44.85,0)" xlink:href="#q"/><use transform="matrix(0.05,0,0,0.05,59.800000000000004,0)" xlink:href="#o"/><use transform="matrix(0.05,0,0,0.05,69.80000000000001,0)" xlink:href="#r"/><use transform="matrix(0.05,0,0,0.05,79.80000000000001,0)" xlink:href="#m"/><use transform="matrix(0.05,0,0,0.05,89.80000000000001,0)" xlink:href="#s"/></g><path d="M106-169C34-169 62-67 57 0H25v-261h32l-1 103c12-21 28-36 61-36 89 0 53 116 60 194h-32v-121c2-32-8-49-39-48" id="z"/><g id="g"><use transform="matrix(0.05,0,0,0.05,0,0)" xlink:href="#i"/><use transform="matrix(0.05,0,0,0.05,10,0)" xlink:href="#y"/><use transform="matrix(0.05,0,0,0.05,20,0)" xlink:href="#j"/><use transform="matrix(0.05,0,0,0.05,25,0)" xlink:href="#z"/></g></defs></g></svg>